<svg xmlns="http://www.w3.org/2000/svg" width="860" height="220" viewBox="0 0 860 220" fill="none">
  <defs>
    <linearGradient id="markGradient" x1="34" y1="24" x2="198" y2="188" gradientUnits="userSpaceOnUse">
      <stop offset="0" stop-color="#FFB457"/>
      <stop offset="1" stop-color="#FF7B21"/>
    </linearGradient>
  </defs>
  <path
    d="M42 50C42 35.641 53.641 24 68 24H125.41C136.192 24 146.525 28.3136 154.096 35.9851L177.686 59.8845C185.099 67.3944 189.25 77.5211 189.25 88.0738V152C189.25 166.359 177.609 178 163.25 178H68C53.641 178 42 166.359 42 152V50Z"
    fill="url(#markGradient)"
  />
  <rect x="67.5" y="52" width="24" height="88" rx="12" fill="#09131C"/>
  <path
    d="M93.5 147H74V164H106.205C117.819 164 128.786 158.687 136.001 149.584L170 106.694V76H162.75C155.432 76 148.53 79.3972 144.069 85.1961L103.441 138.012C101.065 141.1 97.3881 143 93.5 143V147Z"
    fill="#09131C"
  />
  <rect x="67.5" y="144" width="63" height="17" rx="8.5" fill="#09131C"/>
  <text
    x="231"
    y="92"
    fill="#EDF5F7"
    font-family="Arial, Helvetica, sans-serif"
    font-size="72"
    font-weight="700"
    letter-spacing="4"
  >
    IRONDROP
  </text>
  <text
    x="233"
    y="137"
    fill="#FFD698"
    font-family="Arial, Helvetica, sans-serif"
    font-size="30"
    font-weight="700"
    letter-spacing="6"
  >
    HAUL CO.
  </text>
  <text
    x="233"
    y="174"
    fill="#9AB0BA"
    font-family="Arial, Helvetica, sans-serif"
    font-size="22"
    font-weight="700"
    letter-spacing="2.8"
  >
    DUMP TRAILER + JUNK HAULING
  </text>
</svg>
