<svg xmlns="http://www.w3.org/2000/svg" width="1120" height="250" viewBox="0 0 1120 250" fill="none">
  <defs>
    <linearGradient id="lightAccentBar" x1="0" y1="0" x2="250" y2="0" gradientUnits="userSpaceOnUse">
      <stop offset="0" stop-color="#FFAA3D"/>
      <stop offset="1" stop-color="#FF6D1F"/>
    </linearGradient>
  </defs>
  <g transform="translate(20 18)">
    <polygon points="72,70 118,24 154,70 120,88" fill="#171D23"/>
    <polygon points="72,70 120,88 92,132 48,118" fill="#444F59"/>
    <polygon points="118,24 180,42 165,90 154,70" fill="#2C3640"/>
    <polygon points="154,70 165,90 124,112 120,88" fill="#5B6772"/>
    <polygon points="165,90 216,118 193,144 144,132 124,112" fill="#12181D"/>
    <polygon points="144,132 193,144 176,176 132,184 104,162" fill="#4E5964"/>
    <polygon points="92,132 124,112 144,132 104,162 70,152" fill="#7C8994"/>
    <polygon points="48,118 92,132 70,152 40,182 30,140" fill="#29323B"/>
    <polygon points="40,182 70,152 104,162 132,184 118,210 72,214" fill="#596570"/>
    <polygon points="118,210 148,212 176,176 168,218 128,232" fill="#171D23"/>
    <polygon points="168,218 190,206 210,162 176,176" fill="#87939E"/>
    <polygon points="170,56 208,76 214,102 184,96 165,90" fill="#6C7782"/>
    <polygon points="184,96 214,102 224,120 216,118 193,144 176,132" fill="#1E252C"/>
    <polygon points="170,56 220,40 238,70 208,76" fill="#11171C"/>
    <polygon points="220,40 248,50 236,74 238,70" fill="#48545E"/>
    <polygon points="214,102 240,98 252,116 224,120" fill="#8A949E"/>
    <polygon points="190,110 214,120 198,126 176,122" fill="#F2F6F8"/>
    <polygon points="210,132 236,134 226,148 202,150" fill="#F2F6F8"/>
    <polygon points="164,184 190,206 210,162 188,166" fill="#11171C"/>
    <polygon points="58,44 92,26 88,56" fill="url(#lightAccentBar)"/>
  </g>

  <g transform="translate(305 24)">
    <g transform="skewX(-12)">
      <text
        x="0"
        y="88"
        fill="#171D23"
        font-family="Arial Black, Impact, Arial, sans-serif"
        font-size="102"
        font-weight="900"
        letter-spacing="1.5"
      >
        IRONDROP
      </text>
      <text
        x="2"
        y="160"
        fill="#414D57"
        font-family="Arial Black, Impact, Arial, sans-serif"
        font-size="62"
        font-weight="900"
        letter-spacing="2"
      >
        CONTAINERS
      </text>
    </g>

    <rect x="8" y="176" width="402" height="15" rx="7.5" fill="url(#lightAccentBar)"/>

    <text
      x="0"
      y="220"
      fill="#596772"
      font-family="Arial, Helvetica, sans-serif"
      font-size="24"
      font-weight="700"
      letter-spacing="4"
    >
      DUMP TRAILER + JUNK HAULING
    </text>
  </g>
</svg>
