<svg xmlns="http://www.w3.org/2000/svg" width="1400" height="700" viewBox="0 0 1400 700" fill="none">
  <defs>
    <linearGradient id="panelAccent" x1="0" y1="0" x2="340" y2="0" gradientUnits="userSpaceOnUse">
      <stop offset="0" stop-color="#FFAA3D"/>
      <stop offset="1" stop-color="#FF6D1F"/>
    </linearGradient>
  </defs>
  <rect width="1400" height="700" rx="38" fill="#050709"/>
  <g opacity="0.15">
    <polygon points="1080,70 1220,40 1320,116 1280,220 1130,228 1040,154" fill="#DCE4EA"/>
    <polygon points="1108,470 1310,430 1370,540 1260,640 1070,610 1010,518" fill="#DCE4EA"/>
  </g>

  <g transform="translate(70 86)">
    <polygon points="120,120 196,40 256,120 200,152" fill="#F8FBFD"/>
    <polygon points="120,120 200,152 152,224 78,204" fill="#DCE4EA"/>
    <polygon points="196,40 298,70 278,152 256,120" fill="#EEF3F7"/>
    <polygon points="256,120 278,152 212,188 200,152" fill="#C4CED7"/>
    <polygon points="278,152 360,198 324,242 246,224 212,188" fill="#F8FBFD"/>
    <polygon points="246,224 324,242 298,296 224,310 178,272" fill="#D4DDE4"/>
    <polygon points="152,224 212,188 246,224 178,272 122,254" fill="#A6B2BC"/>
    <polygon points="78,204 152,224 122,254 70,302 54,234" fill="#EEF3F7"/>
    <polygon points="70,302 122,254 178,272 224,310 204,356 130,362" fill="#BEC8D0"/>
    <polygon points="204,356 250,356 298,296 284,370 220,394" fill="#F8FBFD"/>
    <polygon points="284,370 318,348 350,278 298,296" fill="#8E99A3"/>
    <polygon points="284,96 348,128 358,172 306,160 278,152" fill="#A9B4BD"/>
    <polygon points="306,160 358,172 374,200 324,242 286,220" fill="#FFFFFF"/>
    <polygon points="284,96 366,70 394,116 348,128" fill="#FFFFFF"/>
    <polygon points="366,70 410,84 392,118" fill="#DCE4EA"/>
    <polygon points="314,180 352,196 326,206 290,200" fill="#11161B"/>
    <polygon points="340,220 382,224 366,246 330,248" fill="#11161B"/>
    <polygon points="96,82 150,52 144,96" fill="url(#panelAccent)"/>
  </g>

  <g transform="translate(505 126)">
    <g transform="skewX(-12)">
      <text
        x="0"
        y="118"
        fill="#F8FBFD"
        font-family="Arial Black, Impact, Arial, sans-serif"
        font-size="146"
        font-weight="900"
        letter-spacing="2"
      >
        IRONDROP
      </text>
      <text
        x="6"
        y="218"
        fill="#D8E1E8"
        font-family="Arial Black, Impact, Arial, sans-serif"
        font-size="92"
        font-weight="900"
        letter-spacing="3"
      >
        CONTAINERS
      </text>
    </g>

    <rect x="16" y="254" width="620" height="18" rx="9" fill="url(#panelAccent)"/>

    <text
      x="0"
      y="392"
      fill="#FFFFFF"
      font-family="Arial Black, Impact, Arial, sans-serif"
      font-size="112"
      font-weight="900"
      letter-spacing="1"
    >
      956-315-9677
    </text>
    <text
      x="4"
      y="438"
      fill="#B1BEC7"
      font-family="Arial, Helvetica, sans-serif"
      font-size="32"
      font-weight="700"
      letter-spacing="3"
    >
      DUMP TRAILER RENTAL + JUNK HAULING
    </text>
  </g>

  <g transform="translate(1182 438)">
    <rect width="124" height="158" rx="18" fill="#0E1419" stroke="#F8FBFD" stroke-width="4"/>
    <rect x="20" y="20" width="84" height="84" rx="10" fill="#F8FBFD"/>
    <path d="M34 38H90V44H34V38ZM34 50H90V56H34V50ZM34 62H90V68H34V62ZM34 74H90V80H34V74ZM34 86H90V92H34V86Z" fill="#11161B"/>
    <text
      x="62"
      y="128"
      fill="#F8FBFD"
      font-family="Arial, Helvetica, sans-serif"
      font-size="18"
      font-weight="700"
      letter-spacing="1.4"
      text-anchor="middle"
    >
      SCAN ME
    </text>
  </g>
</svg>
