<svg xmlns="http://www.w3.org/2000/svg" viewBox="0 0 1200 760" role="img" aria-labelledby="title desc">
  <title id="title">Owner-operated black dump trailer on a job site</title>
  <desc id="desc">Stylized illustration of a black dual-axle dump trailer parked beside a demolition site under a cloudy sky.</desc>
  <defs>
    <linearGradient id="sky" x1="0%" y1="0%" x2="0%" y2="100%">
      <stop offset="0%" stop-color="#dce8f1"/>
      <stop offset="55%" stop-color="#bccad6"/>
      <stop offset="100%" stop-color="#97a7b4"/>
    </linearGradient>
    <linearGradient id="ground" x1="0%" y1="0%" x2="0%" y2="100%">
      <stop offset="0%" stop-color="#7b6d54"/>
      <stop offset="100%" stop-color="#534735"/>
    </linearGradient>
    <linearGradient id="trailer" x1="0%" y1="0%" x2="100%" y2="100%">
      <stop offset="0%" stop-color="#20242a"/>
      <stop offset="100%" stop-color="#06080b"/>
    </linearGradient>
  </defs>
  <rect width="1200" height="760" fill="url(#sky)"/>
  <path d="M0 120c110-50 235-60 340-12 90 41 173 48 275 14 112-38 210-41 320 8 80 36 168 45 265 4v236H0z" fill="#cad6df" opacity=".68"/>
  <path d="M0 180c95-32 184-35 272 4 120 54 247 72 379 22 120-45 240-49 380 6 67 26 116 33 169 18v191H0z" fill="#b2c0cb" opacity=".8"/>
  <rect y="484" width="1200" height="276" fill="url(#ground)"/>
  <path d="M0 520c157 27 307 33 468 12 161-20 290-9 420 17 114 23 220 23 312 0v211H0z" fill="#6b5d46"/>
  <g opacity=".78">
    <rect x="645" y="300" width="22" height="214" fill="#6a5944"/>
    <rect x="692" y="286" width="18" height="228" fill="#6d5d48"/>
    <rect x="744" y="310" width="18" height="204" fill="#705f48"/>
    <rect x="798" y="274" width="18" height="240" fill="#6a5944"/>
    <rect x="850" y="302" width="18" height="212" fill="#705f48"/>
    <path d="M615 300h296v18H615z" fill="#755f47"/>
    <path d="M602 334h316v14H602z" fill="#6f5a45"/>
    <path d="M592 348h334v8H592z" fill="#5d4b38"/>
  </g>
  <g opacity=".35">
    <path d="M566 474h28v38h-28z" fill="#18140f"/>
    <path d="M926 474h24v40h-24z" fill="#18140f"/>
    <path d="M716 430h52v82h-52z" fill="#232221"/>
  </g>
  <g>
    <path d="M122 572h378l65-48h141v22h-96l-29 26H122z" fill="#2b333b"/>
    <path d="M192 356h324c40 0 72 32 72 72v144H192z" fill="url(#trailer)"/>
    <path d="M192 356h324c40 0 72 32 72 72v18H192z" fill="#393f46" opacity=".65"/>
    <path d="M192 356 156 334h338l38 22z" fill="#494f56"/>
    <path d="M562 426h28v146h-28z" fill="#16191d"/>
    <path d="M452 392h40v180h-40z" fill="#14171b"/>
    <path d="M520 392h16v180h-16z" fill="#14171b"/>
    <path d="M248 398h138v96H248z" fill="#0f1216"/>
    <text x="260" y="440" fill="#ffffff" font-family="Instrument Sans, Arial, sans-serif" font-size="34" font-weight="700">IRONDROP</text>
    <text x="260" y="476" fill="#d0d7de" font-family="Instrument Sans, Arial, sans-serif" font-size="22" font-weight="700" letter-spacing="4">DUMPSTER TRAILER</text>
    <circle cx="314" cy="594" r="54" fill="#12161a"/>
    <circle cx="314" cy="594" r="28" fill="#88939c"/>
    <circle cx="466" cy="594" r="54" fill="#12161a"/>
    <circle cx="466" cy="594" r="28" fill="#88939c"/>
    <rect x="112" y="548" width="104" height="24" fill="#20262d"/>
    <path d="M54 572h96v-36h28v36h36" fill="none" stroke="#2a333b" stroke-width="20" stroke-linecap="round" stroke-linejoin="round"/>
    <rect x="202" y="428" width="14" height="82" fill="#6d767d"/>
    <rect x="560" y="428" width="14" height="82" fill="#6d767d"/>
    <rect x="602" y="432" width="44" height="10" rx="5" fill="#d84441"/>
    <rect x="652" y="432" width="44" height="10" rx="5" fill="#d84441"/>
  </g>
  <g opacity=".24">
    <ellipse cx="382" cy="640" rx="246" ry="26" fill="#12100d"/>
    <ellipse cx="792" cy="636" rx="198" ry="20" fill="#12100d"/>
  </g>
  <g opacity=".6">
    <path d="M1036 526c24 0 42 18 42 42s-18 42-42 42-42-18-42-42 18-42 42-42z" fill="#95a4b1"/>
    <path d="M1036 534c19 0 34 15 34 34s-15 34-34 34-34-15-34-34 15-34 34-34z" fill="#d2dae0"/>
  </g>
</svg>
